<?xml version="1.0" standalone="no"?>
<!DOCTYPE svg PUBLIC "-//W3C//DTD SVG 20010904//EN"
 "http://www.w3.org/TR/2001/REC-SVG-20010904/DTD/svg10.dtd">
<svg version="1.0" xmlns="http://www.w3.org/2000/svg"
 width="843.000000pt" height="843.000000pt" viewBox="0 0 843.000000 843.000000"
 preserveAspectRatio="xMidYMid meet">
<metadata>
Created by potrace 1.14, written by Peter Selinger 2001-2017
</metadata>
<g transform="translate(0.000000,843.000000) scale(0.100000,-0.100000)"
fill="#000000" stroke="none">
<path d="M3678 5676 c-15 -21 -16 -25 -2 -30 8 -3 13 -10 10 -15 -3 -5 1 -12
9 -15 12 -4 14 0 9 18 -3 13 -1 27 5 30 15 10 14 36 -1 36 -7 0 -21 -11 -30
-24z"/>
<path d="M4428 5675 c-32 -29 -44 -63 -29 -78 8 -8 18 -4 37 14 15 13 24 19
20 12 -3 -6 -2 -14 4 -18 5 -3 10 3 10 14 0 11 -4 23 -10 26 -19 12 -10 22 20
20 17 -1 30 2 30 7 0 5 5 6 10 3 6 -3 10 -2 10 4 0 5 8 12 18 14 11 3 8 5 -8
6 -15 0 -31 -4 -37 -10 -8 -8 -13 -8 -17 0 -11 17 -29 13 -58 -14z"/>
<path d="M4955 5640 c-3 -5 1 -10 10 -10 9 0 13 5 10 10 -3 6 -8 10 -10 10 -2
0 -7 -4 -10 -10z"/>
<path d="M3247 5620 c3 -14 15 -38 26 -55 l21 -29 6 24 6 25 17 -31 c9 -17 13
-41 10 -52 -3 -12 -3 -29 1 -37 4 -12 9 -13 24 -4 20 13 18 39 -6 100 -11 27
-48 44 -74 34 -9 -4 -18 5 -26 22 -10 25 -11 25 -5 3z"/>
<path d="M4527 5600 c-3 -11 -2 -20 3 -20 4 0 10 9 13 20 3 11 2 20 -3 20 -4
0 -10 -9 -13 -20z"/>
<path d="M4932 5588 c-6 -6 -12 -19 -12 -27 0 -13 2 -13 16 1 9 9 15 21 13 27
-3 9 -8 8 -17 -1z"/>
<path d="M4870 5560 c-9 -6 -10 -10 -3 -10 6 0 15 5 18 10 8 12 4 12 -15 0z"/>
<path d="M2856 5531 c-3 -5 1 -14 9 -21 22 -18 19 -57 -6 -70 -11 -7 -18 -14
-15 -18 3 -3 -1 -16 -9 -29 -14 -21 -14 -23 5 -23 12 0 20 7 20 18 0 24 29 64
41 56 6 -4 6 -11 -1 -19 -7 -8 -7 -16 -2 -19 10 -6 42 35 42 54 0 6 -8 10 -17
8 -10 -2 -18 4 -19 12 0 8 -2 20 -2 25 -3 15 -40 36 -46 26z"/>
<path d="M4840 5531 c0 -5 12 -16 26 -26 24 -16 26 -16 22 1 -3 17 -48 40 -48
25z"/>
<path d="M5387 5521 c-16 -16 -16 -20 -2 -31 18 -15 20 -56 3 -67 -12 -7 -58
-85 -58 -97 0 -4 6 -6 13 -6 14 0 48 36 41 43 -8 8 18 56 33 61 11 4 13 1 8
-14 -4 -11 -2 -20 4 -20 6 0 11 7 11 15 0 8 5 15 10 15 6 0 10 9 10 21 0 15
-5 19 -15 15 -10 -3 -15 1 -15 13 0 10 -7 24 -15 31 -12 10 -13 16 -4 26 17
20 -3 16 -24 -5z"/>
<path d="M3250 5510 c0 -5 5 -10 11 -10 5 0 7 5 4 10 -3 6 -8 10 -11 10 -2 0
-4 -4 -4 -10z"/>
<path d="M4695 5500 c-3 -6 1 -7 9 -4 18 7 21 14 7 14 -6 0 -13 -4 -16 -10z"/>
<path d="M4973 5470 c-15 -6 -21 -15 -17 -24 5 -14 8 -14 21 -1 8 8 19 15 24
15 5 0 9 5 9 10 0 12 -7 12 -37 0z"/>
<path d="M4011 5419 c-1 -21 -13 -55 -32 -83 -16 -27 -28 -50 -26 -52 2 -2 18
1 36 7 29 10 35 9 54 -10 20 -19 20 -24 9 -68 -25 -93 -105 -176 -169 -174
-15 0 -38 0 -50 1 -12 0 -27 8 -32 18 -7 11 -13 13 -18 6 -10 -13 -55 -44 -65
-44 -5 0 -17 9 -28 20 l-21 21 -26 -21 c-32 -25 -55 -25 -76 -2 -34 38 -8 119
64 196 23 25 37 46 31 46 -5 0 -15 -6 -21 -14 -7 -8 -20 -12 -30 -9 -12 3 -20
-2 -23 -15 -4 -15 -18 -21 -64 -27 -32 -4 -67 -11 -79 -15 -22 -8 -91 -144
-116 -228 -9 -30 -17 -42 -28 -40 -24 5 -17 74 14 153 15 36 25 68 23 70 -2 3
-19 -8 -38 -23 -26 -22 -33 -37 -35 -68 -3 -45 -28 -55 -33 -12 -6 48 38 107
123 167 48 33 118 151 90 151 -9 0 -29 -7 -44 -15 -29 -14 -32 -33 -16 -85 6
-19 4 -21 -14 -15 -12 3 -21 2 -21 -4 0 -6 -15 -8 -35 -6 -26 4 -35 1 -35 -9
0 -8 5 -18 10 -21 28 -17 -10 -41 -40 -25 -10 5 -21 21 -24 35 -6 25 -29 34
-41 15 -3 -5 -1 -10 6 -10 9 0 9 -3 0 -14 -9 -11 -9 -17 2 -27 18 -19 19 -55
1 -70 -10 -8 -11 -15 -4 -19 6 -4 5 -13 -5 -26 -10 -13 -17 -15 -22 -8 -5 8
-27 -10 -61 -50 -78 -89 -190 -185 -247 -212 -85 -40 -178 -25 -257 42 -22 18
-34 22 -41 15 -6 -6 -19 -11 -29 -11 -10 0 -57 -18 -106 -39 -48 -22 -133 -55
-189 -74 -57 -19 -114 -42 -127 -51 l-25 -16 22 -23 c12 -13 32 -29 45 -36 19
-10 26 -8 50 14 41 40 85 59 227 100 153 44 250 54 315 31 31 -10 46 -12 51
-4 4 6 12 7 18 3 7 -4 32 2 56 14 55 26 83 32 174 37 48 2 79 -1 88 -8 11 -9
16 -9 23 2 7 11 11 10 25 -3 18 -19 45 -23 45 -7 0 6 7 10 15 10 8 0 15 8 16
18 0 10 5 6 11 -11 8 -21 15 -27 29 -24 11 3 19 2 19 -3 0 -17 33 -20 44 -4
11 15 14 15 28 0 9 -9 29 -16 43 -16 25 0 26 2 19 32 -6 29 -5 31 10 19 9 -7
17 -25 17 -40 2 -24 2 -24 6 -3 3 17 9 21 23 17 15 -5 21 2 31 34 7 22 15 38
19 36 4 -3 11 14 15 38 7 40 7 41 17 17 l11 -25 7 25 c7 21 8 22 10 5 2 -14 4
-11 9 10 8 39 21 37 46 -8 24 -44 33 -46 41 -9 3 15 7 33 10 40 4 14 84 17 84
3 0 -10 91 -13 123 -4 9 2 17 11 17 18 0 23 18 27 45 9 17 -11 37 -15 60 -11
19 3 35 3 36 -1 0 -4 2 -16 5 -27 14 -73 16 -128 5 -149 -10 -17 -9 -37 3 -91
16 -77 63 -172 77 -158 27 27 24 193 -3 236 -30 47 -29 63 2 29 21 -22 29 -40
25 -52 -3 -10 -1 -21 5 -25 6 -4 10 6 10 24 0 35 18 117 31 143 5 10 9 28 9
40 1 21 1 21 11 5 10 -17 13 -16 35 14 l24 33 11 -33 c14 -39 29 -25 29 27 0
39 8 40 35 7 14 -19 32 -27 62 -30 24 -2 48 -7 54 -11 8 -5 10 4 7 29 -4 37
10 55 29 36 5 -5 22 -10 39 -12 16 -2 40 -10 53 -16 19 -11 25 -11 32 0 7 11
9 11 9 1 0 -7 4 -11 9 -7 5 3 15 -11 21 -31 9 -27 15 -33 21 -23 8 11 12 10
21 -6 11 -19 11 -19 19 0 7 18 8 18 8 -3 1 -13 5 -21 10 -18 5 3 12 -4 15 -17
l6 -22 20 25 c11 14 20 32 20 41 0 23 26 70 33 62 13 -12 7 -33 -8 -33 -17 0
-21 -45 -5 -55 6 -3 10 -16 10 -28 0 -20 0 -20 14 -2 13 18 14 17 21 -13 9
-41 19 -41 33 1 l10 32 1 -42 c1 -31 5 -43 16 -43 9 0 15 9 15 23 0 16 3 18 9
8 10 -16 31 -6 31 15 0 17 16 19 24 2 5 -10 7 -10 12 0 9 19 21 14 28 -12 4
-18 12 -24 29 -23 12 0 25 6 29 12 4 5 8 0 8 -12 0 -45 49 -19 51 26 1 18 3
20 6 8 2 -9 9 -15 14 -12 5 4 9 -1 9 -9 0 -26 17 -18 32 14 14 34 28 39 28 12
0 -15 10 -18 73 -21 87 -4 147 -4 247 -2 l75 2 -95 34 c-52 19 -149 51 -215
71 -66 20 -145 49 -175 65 -30 15 -80 34 -110 40 -78 16 -168 58 -151 68 8 6
11 16 7 27 -6 16 -8 15 -23 -7 -36 -52 -78 -64 -111 -31 -18 18 -19 18 -42 0
-30 -24 -70 -24 -77 1 -5 18 -7 18 -40 -5 -20 -13 -42 -24 -49 -24 -31 0 -40
71 -13 106 5 6 18 37 28 69 18 55 18 57 1 39 -10 -11 -25 -43 -34 -73 -19 -66
-54 -113 -100 -135 -41 -19 -85 -8 -93 24 -7 25 -15 25 -39 -1 -31 -34 -73
-52 -90 -38 -8 6 -14 18 -14 26 0 10 -10 7 -33 -11 -40 -31 -73 -33 -82 -7 -6
19 -7 19 -42 -5 -20 -14 -44 -23 -52 -22 -25 5 -26 72 -2 122 12 23 21 45 21
48 0 3 9 27 21 53 20 45 21 46 40 29 25 -23 24 -30 -10 -100 -16 -32 -32 -70
-36 -84 -12 -49 88 73 115 139 26 65 42 75 61 39 10 -18 6 -31 -19 -82 -17
-34 -33 -71 -37 -84 -6 -21 -5 -22 12 -11 10 6 28 23 39 38 21 25 154 272 154
285 0 3 -9 6 -21 6 -15 0 -19 -5 -15 -18 7 -20 -28 -82 -46 -82 -7 0 -39 13
-71 29 -47 23 -59 25 -66 14 -5 -9 -18 -12 -37 -9 -16 2 -39 5 -51 5 -12 1
-24 9 -26 19 -4 16 -5 16 -6 0 -1 -11 -9 -18 -20 -18 -14 0 -22 11 -29 38
l-10 37 -1 -36z m169 -94 c0 -17 -35 -21 -45 -5 -3 5 0 7 8 4 8 -3 18 -1 22 5
9 15 15 14 15 -4z m119 1 c10 -12 8 -13 -9 -9 -25 7 -37 23 -17 23 8 0 20 -6
26 -14z m-789 -171 c-14 -17 -46 -20 -55 -6 -3 5 7 12 22 14 16 2 32 5 37 6 5
0 3 -6 -4 -14z m34 -259 c-3 -9 -10 -16 -15 -16 -5 0 -4 9 3 20 14 22 21 20
12 -4z m-361 -67 c4 -16 3 -18 -9 -8 -7 6 -11 15 -8 20 8 13 11 11 17 -12z
m138 -6 c-12 -20 -14 -14 -5 12 4 9 9 14 11 11 3 -2 0 -13 -6 -23z"/>
<path d="M4472 5418 c-7 -13 -32 -59 -57 -103 -120 -213 -126 -280 -9 -109 51
75 58 91 46 100 -18 13 -7 35 13 28 15 -6 22 13 29 74 4 37 -6 42 -22 10z"/>
<path d="M3650 5413 c-98 -16 -129 -25 -124 -38 3 -7 -11 -36 -32 -65 -35 -49
-36 -52 -14 -48 17 2 26 12 32 35 11 41 53 55 169 57 48 1 85 5 82 9 -3 4 1
15 9 24 8 11 9 14 1 10 -7 -4 -29 -1 -49 8 -20 8 -39 14 -43 14 -3 -1 -17 -4
-31 -6z"/>
<path d="M3921 5389 c-11 -19 -32 -42 -46 -49 -19 -10 -22 -17 -15 -30 8 -15
2 -20 -35 -35 -29 -11 -45 -23 -45 -34 0 -9 -5 -22 -12 -29 -8 -8 -8 -15 2
-27 8 -10 9 -19 3 -27 -16 -21 -33 -78 -23 -78 15 0 81 85 110 141 14 30 41
83 59 118 35 69 37 108 2 50z"/>
<path d="M4771 5359 c-56 -11 -60 -16 -25 -29 20 -8 30 -8 32 -1 5 16 19 13
39 -8 37 -39 94 -34 93 8 -1 14 -2 14 -14 -1 -15 -20 -30 -24 -24 -6 5 14 -27
48 -44 47 -7 -1 -33 -5 -57 -10z"/>
<path d="M2715 5340 c3 -5 8 -10 11 -10 2 0 4 5 4 10 0 6 -5 10 -11 10 -5 0
-7 -4 -4 -10z"/>
<path d="M2887 5337 c-5 -16 20 -40 33 -32 15 9 12 19 -9 32 -15 10 -20 10
-24 0z"/>
<path d="M1955 5299 c-13 -5 9 -8 59 -8 44 -1 77 1 75 3 -10 8 -116 13 -134 5z"/>
<path d="M3302 5288 c-18 -18 -15 -28 8 -28 13 0 20 7 20 20 0 23 -10 26 -28
8z"/>
<path d="M4740 5280 c-6 -11 -15 -18 -19 -16 -11 7 -50 -48 -67 -96 -19 -56
-19 -56 22 -17 35 33 99 149 83 149 -5 0 -13 -9 -19 -20z"/>
<path d="M4507 5260 c-52 -45 -75 -150 -33 -150 27 0 115 118 99 134 -4 3 -15
-1 -25 -11 -17 -15 -18 -15 -18 8 0 14 5 30 12 37 25 25 -3 11 -35 -18z"/>
<path d="M4845 5254 c-12 -19 -19 -23 -25 -14 -5 8 -14 1 -28 -22 -26 -42 -38
-88 -23 -88 19 0 109 135 98 146 -2 3 -12 -7 -22 -22z"/>
<path d="M5300 5245 c0 -8 4 -15 10 -15 5 0 7 7 4 15 -4 8 -8 15 -10 15 -2 0
-4 -7 -4 -15z"/>
<path d="M3939 5227 c-54 -36 -93 -137 -52 -137 20 0 91 75 108 115 22 51 0
60 -56 22z"/>
<path d="M3681 5221 c-39 -39 -78 -136 -60 -147 14 -8 99 82 99 105 0 10 7 24
15 31 8 7 12 16 9 21 -9 15 -43 10 -63 -10z"/>
<path d="M4888 5234 c-5 -4 -8 -19 -8 -33 0 -18 -7 -30 -22 -36 -30 -13 -30
-39 -1 -43 17 -3 26 4 33 24 12 30 10 101 -2 88z"/>
<path d="M3085 5215 c-16 -8 -23 -14 -15 -14 8 0 29 6 45 14 17 7 23 13 15 13
-8 0 -28 -6 -45 -13z"/>
<path d="M6220 5216 c0 -18 57 -96 70 -96 16 0 2 41 -21 60 -18 16 -20 20 -6
16 12 -4 17 -2 15 6 -4 13 -58 25 -58 14z"/>
<path d="M6135 5169 c-38 -4 -97 -15 -130 -24 -33 -9 -71 -19 -83 -22 -17 -4
9 -14 87 -34 116 -29 147 -32 169 -16 8 7 12 5 12 -7 0 -18 14 -13 53 16 18
14 18 15 0 53 -10 21 -22 39 -28 40 -5 1 -41 -2 -80 -6z"/>
<path d="M1920 5146 c-32 -18 -39 -76 -9 -76 11 0 19 5 19 10 0 6 11 10 25 10
16 0 25 6 25 15 0 8 -7 15 -15 15 -23 0 -18 19 8 30 22 9 22 9 -3 9 -14 0 -36
-6 -50 -13z"/>
<path d="M2845 5140 c3 -5 11 -10 16 -10 6 0 7 5 4 10 -3 6 -11 10 -16 10 -6
0 -7 -4 -4 -10z"/>
<path d="M2486 5126 c3 -8 13 -17 22 -20 9 -3 23 -9 30 -12 6 -3 12 -1 12 5 0
6 -6 11 -14 11 -7 0 -19 7 -26 15 -16 19 -31 20 -24 1z"/>
<path d="M2873 5112 c-21 -7 -21 -8 -5 -29 13 -16 22 -19 40 -12 21 8 22 9 5
29 -10 11 -18 20 -18 19 0 -1 -10 -4 -22 -7z"/>
<path d="M5330 5091 c0 -5 7 -15 17 -22 15 -13 15 -12 4 9 -12 23 -21 28 -21
13z"/>
<path d="M2580 5070 c8 -5 22 -9 30 -9 10 0 8 3 -5 9 -27 12 -43 12 -25 0z"/>
<path d="M3090 5065 c-7 -8 -16 -15 -21 -15 -14 0 -121 -42 -117 -46 3 -2 19
1 38 6 19 5 29 6 24 1 -8 -8 -89 -35 -249 -85 -22 -7 -64 -12 -93 -10 -61 3
-61 -3 3 -35 119 -59 226 -32 344 86 37 38 73 78 80 91 13 25 9 29 -9 7z"/>
<path d="M6260 5060 c-8 -5 -12 -12 -9 -15 4 -3 12 1 19 10 14 17 11 19 -10 5z"/>
<path d="M2475 4979 c-4 -11 -14 -14 -32 -11 -22 4 -25 2 -20 -12 4 -10 7 -22
7 -27 0 -15 23 -10 48 11 18 15 21 23 13 37 -9 16 -10 16 -16 2z"/>
<path d="M2765 4965 c-16 -8 -23 -14 -14 -15 8 0 24 7 35 15 23 18 18 18 -21
0z"/>
<path d="M5752 4929 c1 -13 8 -23 13 -21 15 3 12 35 -3 40 -9 3 -13 -3 -10
-19z"/>
<path d="M2581 4890 c20 -24 53 -53 74 -64 49 -25 129 -31 178 -14 l39 14 -69
0 c-77 1 -152 27 -218 78 l-40 30 36 -44z"/>
<path d="M5980 4922 c0 -13 164 -64 183 -56 35 13 14 38 -38 45 -124 17 -145
18 -145 11z"/>
<path d="M2505 4879 c-22 -10 -49 -20 -60 -23 -10 -3 -17 -8 -13 -11 5 -6 117
21 126 30 3 3 1 9 -4 14 -5 5 -26 0 -49 -10z"/>
<path d="M3780 4881 c-15 -4 -20 -10 -13 -14 13 -8 43 1 43 14 0 5 -1 9 -2 8
-2 -1 -14 -4 -28 -8z"/>
<path d="M4353 4880 c-13 -5 -23 -11 -23 -12 0 -8 200 -5 200 3 0 5 -19 9 -42
9 -24 0 -59 2 -78 5 -19 3 -45 0 -57 -5z"/>
<path d="M2150 4865 c-11 -13 -8 -15 15 -15 23 0 26 2 15 15 -7 8 -14 15 -15
15 -1 0 -8 -7 -15 -15z"/>
<path d="M3820 4861 c0 -9 73 -137 84 -148 3 -4 6 10 6 30 0 28 -3 35 -14 31
-10 -4 -23 10 -41 45 -24 49 -35 62 -35 42z"/>
<path d="M3874 4863 c4 -5 25 -8 46 -8 21 0 36 3 33 8 -2 4 -23 7 -45 7 -23 0
-38 -3 -34 -7z"/>
<path d="M5815 4825 c30 -24 55 -32 55 -17 0 8 -63 42 -78 42 -4 0 7 -11 23
-25z"/>
<path d="M2380 4830 c-13 -9 -13 -10 0 -10 8 0 22 5 30 10 13 9 13 10 0 10 -8
0 -22 -5 -30 -10z"/>
<path d="M4620 4836 c0 -2 7 -9 15 -16 9 -7 15 -8 15 -2 0 5 -7 12 -15 16 -8
3 -15 4 -15 2z"/>
<path d="M3944 4810 c4 -14 16 -63 26 -110 21 -97 31 -127 64 -190 13 -25 31
-78 40 -118 10 -40 38 -116 63 -170 24 -53 52 -117 60 -142 8 -25 18 -49 23
-53 8 -9 27 65 55 212 12 59 13 92 6 110 -17 47 -20 125 -6 185 19 82 30 216
18 216 -6 0 -13 -37 -16 -82 -4 -46 -14 -108 -22 -138 -9 -30 -24 -102 -35
-159 -11 -57 -22 -106 -24 -109 -7 -7 -36 68 -48 123 -6 28 -24 76 -40 109
-25 50 -46 119 -72 239 -4 15 -10 27 -14 27 -7 0 9 -120 23 -175 4 -13 0 -11
-10 7 -15 28 -43 122 -50 172 -2 16 -14 39 -26 50 l-22 21 7 -25z"/>
<path d="M2028 4813 c-16 -4 -16 -6 -2 -29 19 -28 40 -33 29 -6 -4 9 -8 23 -8
30 0 6 -1 11 -1 11 -1 -1 -9 -3 -18 -6z"/>
<path d="M5777 4782 c26 -20 60 -43 76 -49 15 -7 27 -18 27 -24 0 -6 13 -9 36
-6 50 7 51 13 7 27 -21 7 -65 30 -99 51 -79 51 -112 52 -47 1z"/>
<path d="M2060 4790 c0 -5 4 -10 9 -10 6 0 13 5 16 10 3 6 -1 10 -9 10 -9 0
-16 -4 -16 -10z"/>
<path d="M4641 4763 c-5 -21 -12 -58 -16 -83 -3 -25 -13 -65 -21 -90 -7 -25
-18 -70 -24 -100 -6 -30 -26 -94 -45 -141 -19 -47 -44 -125 -55 -173 -12 -48
-38 -139 -60 -204 -21 -64 -42 -142 -46 -172 -10 -84 -16 -91 -61 -74 -21 7
-46 13 -57 14 -11 0 -16 5 -13 14 4 10 0 12 -14 9 -11 -3 -21 1 -25 11 -3 9
-17 16 -32 16 -25 0 -25 0 -6 -21 18 -20 18 -21 -1 -35 -10 -8 -22 -14 -26
-14 -10 0 -39 47 -39 63 0 8 -22 50 -48 94 -54 89 -63 111 -87 198 -9 33 -34
94 -55 135 -21 41 -53 106 -70 145 -17 38 -49 93 -70 122 -39 51 -79 139 -81
178 -1 17 -2 17 -6 3 -9 -35 -67 -14 -77 27 -4 14 -11 25 -16 25 -19 0 72
-232 114 -290 47 -64 181 -344 200 -415 19 -75 138 -312 172 -342 28 -25 90
-31 126 -12 15 8 37 7 87 -6 108 -26 136 -5 160 125 7 36 28 111 47 167 18 56
41 135 50 175 23 102 27 107 52 64 16 -27 24 -67 33 -167 10 -112 16 -136 35
-158 20 -23 29 -26 86 -25 35 0 92 8 128 17 36 8 109 18 162 22 l98 6 38 -31
c48 -38 89 -50 176 -50 67 0 68 1 62 23 -4 19 0 26 18 35 32 14 24 50 -13 58
-39 8 -71 23 -71 32 0 4 15 25 34 45 41 45 36 48 -11 7 l-34 -30 -23 27 c-12
16 -28 44 -36 63 -7 19 -20 44 -27 55 -7 11 -13 27 -13 37 0 9 -7 21 -16 26
-10 6 -13 12 -6 16 7 4 2 21 -13 49 -12 23 -30 63 -40 89 -20 54 -57 73 -80
41 -13 -17 -14 -17 -21 1 -5 13 -2 23 10 31 9 7 14 19 11 27 -3 8 7 23 24 36
27 19 71 98 71 125 0 13 31 36 50 37 22 0 96 90 75 90 -9 0 -13 5 -10 10 3 6
2 10 -2 10 -17 0 -55 -33 -93 -81 -38 -48 -38 -48 -52 -26 -8 12 -19 35 -26
51 -16 37 -25 28 -11 -11 5 -17 9 -51 7 -74 -4 -55 -23 -65 -140 -79 -46 -6
-97 -12 -115 -15 -30 -5 -31 -4 -38 35 -12 70 -17 37 -10 -59 8 -96 17 -109
52 -72 27 28 58 41 96 41 39 0 84 -30 73 -49 -6 -9 -11 -9 -22 0 -12 10 -13 2
-8 -59 l7 -70 -48 -8 c-27 -4 -67 -7 -89 -8 l-41 -1 3 -78 c1 -43 7 -89 12
-103 9 -24 12 -25 67 -19 56 7 95 27 80 42 -4 3 -13 -2 -21 -12 -14 -19 -36
-13 -36 11 0 8 10 14 23 14 13 0 28 5 35 12 6 6 17 13 24 15 7 1 25 5 40 9 15
3 43 3 62 0 l34 -7 -3 -81 c-3 -70 -6 -82 -22 -84 -127 -17 -164 -17 -178 2
-13 17 -14 18 -15 2 0 -21 -10 -23 -30 -5 -8 6 -4 0 9 -15 30 -34 23 -44 -16
-25 -15 8 -34 12 -40 10 -7 -3 -13 3 -13 13 0 10 -13 -2 -31 -30 -27 -41 -55
-66 -73 -66 -3 0 -15 18 -26 40 -27 53 -28 136 -1 145 12 4 20 17 23 40 2 19
1 35 -3 35 -3 0 -9 19 -13 43 -4 23 -9 52 -13 65 -4 16 -1 22 11 22 9 0 16 5
16 11 0 6 -7 8 -16 5 -25 -9 -44 12 -44 49 0 24 -5 34 -20 38 -13 3 -20 0 -20
-9 0 -8 -4 -14 -10 -14 -16 0 -12 15 10 35 11 10 19 24 18 31 -2 7 2 14 7 16
6 2 11 -7 13 -20 4 -29 24 -37 59 -23 27 10 26 10 -8 5 l-36 -6 -6 74 c-4 40
-13 94 -21 121 -8 28 -10 49 -5 53 6 3 7 14 4 24 -4 12 1 19 13 22 19 5 32 44
32 99 0 27 -20 53 -20 27 -1 -9 -5 -7 -14 5 -19 25 -24 22 -35 -20z m443 -582
c-5 -5 -19 -12 -31 -16 l-23 -6 23 34 c20 32 23 33 31 16 6 -12 6 -23 0 -28z
m-377 -68 c-4 -17 -4 -17 -12 0 -4 9 -4 25 0 35 8 16 8 16 12 0 3 -10 3 -26 0
-35z m228 7 c-3 -5 -14 -10 -23 -10 -15 0 -15 2 -2 10 20 13 33 13 25 0z m245
-210 c0 -5 -7 -10 -16 -10 -8 0 -12 5 -9 10 3 6 10 10 16 10 5 0 9 -4 9 -10z"/>
<path d="M3790 4779 c0 -5 5 -7 10 -4 6 3 10 8 10 11 0 2 -4 4 -10 4 -5 0 -10
-5 -10 -11z"/>
<path d="M1525 4765 c-6 -9 -23 -17 -40 -19 -16 -2 -31 -4 -33 -5 -2 0 10 -12
25 -25 43 -36 86 -102 77 -117 -4 -7 -9 -23 -10 -35 -4 -37 -42 -114 -56 -114
-26 -1 -85 -90 -98 -148 -13 -58 -31 -81 -59 -77 -9 1 -10 0 -3 -2 7 -3 9 -9
6 -15 -5 -8 3 -9 24 -5 30 6 34 2 123 -116 51 -67 110 -142 131 -166 21 -24
35 -47 33 -51 -3 -5 -31 -22 -62 -40 l-56 -32 -17 22 -17 22 -19 -24 c-10 -13
-26 -22 -34 -20 -29 6 -203 335 -197 371 2 11 8 25 15 33 13 16 28 17 -205
-12 -89 -11 -101 -15 -91 -28 7 -8 31 -23 54 -32 l41 -18 1 -98 c1 -55 6 -123
12 -153 5 -29 10 -76 10 -103 l0 -50 -80 4 c-68 3 -79 1 -74 -12 3 -8 8 -31
11 -50 l5 -35 119 6 c107 5 122 9 144 29 21 20 25 33 25 84 0 34 -5 107 -12
164 -12 107 -10 114 30 127 20 6 25 1 44 -47 12 -29 48 -105 80 -169 80 -162
96 -169 294 -114 45 13 55 21 87 72 21 32 37 66 37 77 0 17 6 18 65 12 35 -4
95 -2 132 4 73 11 70 9 147 110 28 38 44 50 60 48 18 -3 24 -15 37 -78 21 -94
26 -105 52 -123 29 -19 92 -33 83 -19 -4 6 3 16 15 23 17 9 19 13 8 20 -11 8
-10 12 5 24 20 15 77 21 74 8 0 -5 2 -16 7 -26 4 -9 5 -27 2 -38 -7 -25 -4
-26 120 -33 l101 -6 68 45 c36 25 68 45 70 45 2 0 4 -7 4 -15 0 -17 16 -20 25
-5 3 6 15 10 27 10 15 0 19 5 15 20 -3 11 -1 20 5 20 6 0 7 8 3 17 -9 26 -19
112 -17 157 1 22 -4 46 -10 54 -16 19 -16 167 -1 258 10 58 10 81 -1 122 -7
28 -11 65 -8 82 6 40 -18 127 -29 108 -12 -18 -11 -75 1 -83 10 -6 9 -65 -2
-65 -7 0 -28 33 -28 44 0 3 3 5 8 5 27 -4 16 7 -49 56 -97 72 -127 86 -174 78
l-37 -6 28 -13 c16 -7 25 -13 19 -13 -5 -1 5 -9 23 -19 41 -21 172 -123 172
-133 0 -9 -87 -69 -99 -69 -4 0 -28 15 -52 33 -24 19 -58 41 -76 50 -28 15
-33 15 -40 2 -6 -10 -29 -15 -80 -16 l-71 -2 -10 -39 c-6 -21 -8 -48 -4 -60 4
-18 2 -20 -21 -16 -15 3 -27 1 -27 -3 0 -5 3 -9 8 -9 4 0 13 -4 20 -9 11 -7
11 -15 -2 -46 -14 -33 -14 -42 0 -88 9 -29 20 -63 26 -77 20 -49 35 -119 27
-131 -4 -7 -14 -9 -23 -6 -9 4 -16 2 -16 -4 0 -7 32 -8 95 -3 67 5 95 3 95 -4
0 -6 7 -9 15 -6 14 6 13 8 -2 19 -10 8 -15 17 -11 21 4 4 14 1 23 -6 10 -8 15
-9 15 -2 0 6 12 31 26 55 26 42 28 44 80 45 52 1 79 -13 54 -28 -9 -6 -1 -20
29 -52 49 -54 55 -76 8 -30 l-33 32 -93 -90 c-88 -85 -111 -98 -111 -64 0 11
-22 14 -112 15 -62 1 -121 2 -131 3 -20 1 -42 36 -81 129 -16 39 -34 67 -43
67 -8 0 -12 4 -9 9 4 5 3 17 0 26 -6 13 -9 14 -16 3 -6 -8 -7 -4 -3 12 4 18
-2 37 -19 63 -24 35 -26 67 -3 67 6 0 8 3 4 6 -3 4 2 23 12 43 34 66 31 82
-27 140 -28 28 -52 61 -52 72 0 24 -46 69 -70 69 -13 0 -16 -6 -12 -25 3 -16
0 -25 -8 -25 -10 0 -9 -4 1 -17 7 -10 2 -8 -13 5 -21 20 -26 21 -31 8 -4 -9
-2 -16 2 -16 5 0 31 -26 58 -58 27 -32 53 -57 59 -55 5 2 11 -19 12 -47 1 -28
6 -70 12 -93 12 -52 13 -127 2 -127 -5 0 -14 10 -20 23 -10 21 -11 21 -11 -8
-1 -34 7 -49 29 -58 12 -4 11 -6 -2 -6 -10 -1 -18 -8 -18 -15 0 -12 -6 -13
-31 -4 -44 15 -48 2 -5 -18 20 -10 36 -20 36 -23 -1 -3 -26 -25 -57 -47 -57
-41 -57 -41 -77 -22 -17 16 -30 19 -71 14 -27 -3 -71 -6 -98 -6 -45 0 -48 -2
-53 -30 -4 -16 -8 -30 -11 -30 -2 0 -31 18 -63 40 l-59 40 15 35 c9 22 10 35
4 35 -6 0 -13 -7 -16 -15 -10 -26 -25 -16 -26 18 -4 90 0 299 6 331 5 28 16
42 46 61 41 26 58 55 21 35 -30 -15 -43 -12 -37 8 4 11 -1 36 -9 56 -9 21 -14
40 -12 43 12 11 55 -12 79 -43 14 -19 29 -31 32 -26 3 5 -10 27 -28 48 -18 21
-40 53 -49 71 -15 28 -52 63 -67 63 -3 0 -10 -7 -15 -15z m533 -162 c2 -8 -5
-13 -17 -13 -21 0 -35 13 -24 24 10 10 36 3 41 -11z m2 -58 c13 -14 19 -25 14
-25 -11 1 -54 36 -54 44 0 13 18 5 40 -19z m80 -72 c0 -18 -5 -16 -35 11 l-27
25 31 -12 c17 -6 31 -17 31 -24z m257 15 c-3 -8 -6 -5 -6 6 -1 11 2 17 5 13 3
-3 4 -12 1 -19z m229 3 c-4 -5 8 -12 24 -16 17 -4 29 -12 27 -18 -6 -19 -23
-18 -51 4 -21 17 -25 24 -14 30 17 11 20 11 14 0z m-113 -48 c20 -6 22 -14 6
-30 -8 -8 1 -13 31 -18 23 -4 59 -18 79 -32 33 -23 42 -24 109 -19 40 4 79 9
86 12 10 4 15 -20 20 -102 4 -58 5 -108 3 -111 -3 -2 -22 7 -42 22 -104 70
-173 55 -226 -47 -21 -41 -59 -53 -59 -20 0 10 -11 51 -25 91 -14 40 -23 81
-20 91 4 14 -5 23 -40 41 -49 25 -50 26 -35 81 11 38 49 62 80 51 8 -3 23 -8
33 -10z m-1463 -293 c0 -5 -4 -10 -9 -10 -6 0 -13 5 -16 10 -3 6 1 10 9 10 9
0 16 -4 16 -10z m1781 -19 c39 -39 37 -58 -3 -30 -34 24 -48 38 -48 52 0 16
23 6 51 -22z m-875 -158 c-4 -4 -11 -1 -16 7 -16 25 -11 35 7 17 9 -9 13 -20
9 -24z"/>
<path d="M2535 4289 c-20 -37 -16 -88 7 -102 13 -8 24 -4 52 21 46 40 76 48
139 33 54 -12 74 -5 64 24 -5 12 -20 15 -71 14 -50 -1 -72 3 -99 20 -48 30
-73 27 -92 -10z"/>
<path d="M6024 4768 c-4 -6 -19 -58 -34 -115 -15 -57 -29 -106 -32 -108 -3 -3
-36 26 -74 66 -38 39 -87 85 -109 102 -22 17 2 -11 53 -62 50 -52 92 -102 92
-111 0 -38 -49 -79 -119 -100 -38 -11 -73 -20 -78 -20 -19 0 -93 109 -86 127
6 16 4 16 -16 -2 -18 -16 -24 -17 -31 -5 -5 8 -7 17 -4 21 6 11 -5 16 -58 23
-42 6 -47 5 -54 -16 -4 -13 -7 -26 -6 -31 1 -4 -1 -6 -5 -6 -20 3 -26 -2 -13
-11 12 -8 11 -10 -8 -10 -27 0 -39 -24 -23 -44 9 -11 7 -22 -7 -47 -20 -36
-45 -42 -107 -25 -29 7 -29 7 -11 -13 11 -12 31 -21 46 -21 16 0 30 -7 34 -16
10 -25 7 -82 -4 -89 -18 -11 -11 -27 9 -20 21 6 31 -17 31 -77 0 -20 4 -48 9
-61 9 -22 16 -25 93 -29 81 -5 98 0 98 27 -1 6 -5 2 -11 -7 -13 -22 -32 -23
-50 -2 -11 14 -10 18 6 31 11 8 19 19 17 26 -2 6 -1 21 2 33 6 24 77 64 115
64 23 0 82 -27 92 -42 3 -5 24 -15 45 -23 38 -13 39 -15 37 -56 -3 -67 -5 -68
-63 -57 -29 5 -54 8 -56 5 -2 -2 13 -12 34 -23 22 -12 37 -28 38 -40 2 -37 5
-39 20 -9 12 26 14 27 9 5 -2 -14 -5 -38 -5 -54 0 -20 -4 -27 -14 -23 -11 5
-12 -1 -4 -31 8 -27 7 -38 -4 -46 -17 -14 -22 -43 -8 -51 8 -5 8 -11 0 -20 -7
-8 -10 -22 -7 -32 3 -15 6 -14 15 7 10 24 11 24 11 3 2 -42 -33 -48 -105 -17
-59 25 -81 44 -51 44 9 0 9 2 -1 9 -8 4 -16 26 -19 49 -5 34 -1 46 25 79 35
43 36 62 2 98 -30 32 -54 34 -44 3 4 -13 7 -30 8 -38 0 -48 -5 -87 -14 -100
-8 -13 -11 -12 -25 5 -9 11 -14 14 -10 7 6 -13 -14 -12 -47 2 -28 12 -74 3
-69 -14 2 -8 4 -32 5 -52 0 -29 5 -38 22 -42 12 -3 25 -17 28 -31 7 -28 69
-97 103 -114 23 -12 112 -15 160 -5 16 3 40 14 53 24 23 17 25 28 30 112 l5
93 27 -3 c19 -2 32 5 47 27 27 38 26 45 -6 69 -26 19 -27 20 -14 68 7 27 13
59 13 72 0 12 5 22 10 22 6 0 8 17 6 40 -2 22 -1 40 3 40 3 0 3 15 1 33 l-5
32 -10 -28 c-7 -21 -14 -27 -28 -24 -11 3 -19 1 -19 -4 0 -5 -7 -9 -15 -9 -8
0 -18 16 -24 37 -9 33 -8 40 12 61 l22 25 -22 -12 c-29 -15 -53 -50 -53 -78 0
-27 -15 -29 -60 -7 -54 27 -111 29 -192 4 -40 -12 -83 -28 -95 -35 -25 -16
-29 -10 -42 63 -8 37 -5 50 26 107 32 60 36 65 61 58 15 -3 48 -29 74 -56 l47
-50 63 6 c74 7 151 37 191 75 30 29 32 25 16 -31 -6 -22 -9 -40 -7 -42 2 -2
26 2 53 9 45 12 50 16 53 44 2 17 -4 44 -12 60 -27 52 -27 110 0 217 14 55 30
106 36 112 7 9 7 13 0 13 -6 0 -14 -5 -18 -12z m-504 -666 c0 -13 -12 -22 -22
-16 -10 6 -1 24 13 24 5 0 9 -4 9 -8z m293 -443 c-8 -8 -19 -8 -40 -1 -28 10
-28 10 12 11 28 1 36 -2 28 -10z"/>
<path d="M2980 4751 c0 -6 3 -11 8 -11 83 -5 151 -14 165 -21 9 -6 17 -7 17
-5 0 3 -12 12 -27 19 -37 19 -163 32 -163 18z"/>
<path d="M3746 4698 c-21 -34 -31 -56 -23 -50 14 12 71 112 64 112 -3 0 -21
-28 -41 -62z"/>
<path d="M2948 4743 c7 -3 16 -2 19 1 4 3 -2 6 -13 5 -11 0 -14 -3 -6 -6z"/>
<path d="M4930 4725 c-19 -14 -31 -25 -27 -25 11 0 87 39 87 45 0 12 -28 2
-60 -20z"/>
<path d="M6325 4723 c10 -40 75 -152 111 -193 17 -19 46 -59 64 -87 17 -29 36
-53 41 -53 13 0 -35 75 -82 128 -21 24 -59 86 -85 138 -47 96 -61 115 -49 67z"/>
<path d="M6818 4703 c-39 -40 -188 -257 -188 -273 0 -19 15 -9 27 18 12 26 63
60 63 41 0 -5 -5 -9 -11 -9 -5 0 -7 -5 -3 -12 5 -8 13 -4 26 13 12 14 15 25 9
27 -15 5 2 37 43 82 32 34 96 130 96 143 0 18 -30 3 -62 -30z"/>
<path d="M1364 4666 c-32 -30 -57 -56 -54 -58 3 -2 31 23 64 54 74 73 68 75
-10 4z"/>
<path d="M6077 4713 c-4 -3 -7 -15 -7 -27 0 -11 -9 -30 -21 -42 -16 -17 -19
-26 -11 -41 9 -15 12 -15 16 -3 36 105 41 132 23 113z"/>
<path d="M3099 4696 c-2 -2 -1 -49 2 -103 4 -54 8 -123 8 -153 l2 -55 24 30
c13 16 22 31 20 34 -3 2 11 26 30 52 19 26 29 49 24 51 -6 2 -13 33 -17 68
l-6 65 -9 -40 c-5 -22 -12 -67 -16 -100 l-7 -60 -6 40 c-4 22 -10 60 -13 85
-6 44 -27 95 -36 86z"/>
<path d="M3350 4690 c-9 -6 -10 -10 -3 -10 23 0 110 -96 127 -140 l18 -45 -34
-25 c-18 -14 -46 -38 -63 -54 -16 -16 -31 -29 -33 -28 -5 4 -182 -119 -182
-126 1 -4 33 -29 72 -57 39 -27 89 -65 112 -84 71 -58 119 -85 151 -83 23 2
42 -7 73 -34 45 -38 51 -54 28 -73 -11 -10 -16 -8 -20 7 -4 10 -21 32 -39 48
-28 26 -29 26 -9 2 l24 -26 -34 -49 c-35 -52 -102 -117 -115 -111 -17 7 -181
186 -210 228 -17 25 -41 54 -53 65 -13 11 -36 40 -51 65 -16 25 -29 38 -29 28
0 -9 5 -20 11 -24 10 -6 9 -23 -7 -101 -7 -39 2 -84 17 -80 6 1 12 -10 14 -24
2 -14 10 -43 19 -63 9 -21 16 -54 16 -72 l0 -34 -97 -1 c-54 -1 -104 -1 -110
0 -18 3 -16 -16 3 -27 14 -8 14 -10 1 -15 -10 -4 -13 -14 -9 -33 l5 -27 106 7
c116 7 176 20 188 39 4 6 10 39 13 72 l5 60 45 -59 c83 -108 92 -117 136 -123
38 -5 45 -1 117 56 79 65 90 82 103 176 5 36 3 43 -33 79 -21 21 -58 52 -83
69 -136 92 -221 162 -208 170 141 83 255 164 260 185 9 32 -49 153 -95 200
-59 61 -119 90 -147 72z m176 -122 c13 -24 13 -28 0 -28 -14 0 -76 67 -76 83
0 16 62 -29 76 -55z m-136 -435 c0 -13 -3 -13 -15 -3 -8 7 -15 19 -15 27 0 13
3 13 15 3 8 -7 15 -19 15 -27z m90 -63 c0 -5 -2 -10 -4 -10 -3 0 -8 5 -11 10
-3 6 -1 10 4 10 6 0 11 -4 11 -10z"/>
<path d="M4810 4675 c-15 -8 -19 -14 -10 -14 18 -1 46 16 40 23 -3 2 -16 -2
-30 -9z"/>
<path d="M7554 4659 c-22 -17 -43 -38 -48 -47 -6 -12 -2 -11 15 4 34 30 88 54
95 43 8 -13 54 -11 54 2 0 6 -9 9 -20 6 -10 -3 -24 1 -31 9 -16 19 -21 18 -65
-17z"/>
<path d="M5685 4669 c-4 -6 -5 -12 -2 -15 2 -3 7 2 10 11 7 17 1 20 -8 4z"/>
<path d="M1106 4659 c3 -6 0 -15 -7 -20 -11 -7 -11 -9 2 -9 9 0 20 7 23 16 9
22 8 24 -10 24 -8 0 -12 -5 -8 -11z"/>
<path d="M1148 4665 c-2 -3 0 -27 6 -55 5 -27 7 -53 3 -57 -4 -4 -26 -9 -49
-12 l-41 -6 -2 -110 -1 -111 55 7 c31 4 80 8 109 8 34 1 52 5 52 14 0 21 60
140 78 154 9 7 34 20 54 30 21 9 36 19 33 21 -7 7 -109 -49 -118 -64 -11 -20
-37 -17 -37 4 0 11 -21 28 -58 47 -55 29 -57 32 -62 77 -6 47 -12 63 -22 53z
m127 -239 c21 -32 5 -66 -30 -66 -22 0 -25 4 -25 38 0 58 27 72 55 28z"/>
<path d="M1010 4649 c-17 -7 -21 -12 -12 -18 16 -9 74 -2 67 9 -3 5 3 11 12
13 10 3 5 5 -12 5 -16 0 -41 -4 -55 -9z"/>
<path d="M7041 4595 c-23 -31 -71 -89 -107 -130 l-65 -74 33 4 c18 3 44 1 58
-4 14 -5 81 -26 150 -46 69 -20 162 -52 207 -71 88 -36 97 -39 88 -25 -3 5
-28 17 -55 26 -28 9 -50 21 -50 27 0 5 13 23 29 39 58 57 89 192 55 235 -14
18 -15 17 -11 -14 3 -24 -1 -37 -13 -44 -11 -7 -15 -19 -12 -35 4 -24 -41
-103 -60 -103 -5 0 -6 5 -2 12 4 7 3 8 -4 4 -16 -10 -57 14 -127 73 -61 52
-75 60 -75 39 0 -9 -3 -9 -11 -1 -6 6 -18 9 -25 6 -8 -3 -14 1 -14 8 0 7 3 9
7 6 3 -4 12 4 18 17 18 35 38 97 32 102 -2 2 -23 -21 -46 -51z"/>
<path d="M7680 4640 c-9 -6 -10 -10 -3 -10 6 0 15 5 18 10 8 12 4 12 -15 0z"/>
<path d="M7720 4628 c0 -10 -4 -18 -8 -18 -5 0 -16 -16 -25 -35 -18 -38 -13
-43 20 -20 12 8 28 12 37 9 19 -7 19 -6 4 -39 -8 -17 -17 -24 -27 -20 -20 8
-133 35 -146 35 -14 0 25 -25 65 -40 32 -13 59 -36 60 -51 0 -6 -69 11 -100
24 -87 37 -151 55 -154 44 -10 -33 -36 -175 -36 -192 0 -11 11 -32 24 -48 35
-41 50 -82 37 -104 -8 -14 -11 -15 -11 -3 -1 19 -35 60 -50 60 -7 0 -25 -9
-41 -20 l-28 -21 -43 21 c-41 20 -68 26 -55 14 3 -4 2 -15 -4 -25 -8 -16 -4
-22 25 -36 34 -16 37 -16 56 2 18 16 23 17 30 5 7 -12 10 -11 16 5 16 42 59
48 66 10 6 -29 -18 -55 -51 -55 -12 0 -25 -8 -28 -17 -4 -10 -48 -63 -99 -117
-51 -55 -90 -105 -87 -112 4 -10 9 -9 23 4 9 9 20 24 23 32 4 11 6 9 6 -6 1
-24 -21 -74 -32 -74 -5 0 -5 -6 -1 -12 6 -10 4 -10 -7 0 -21 20 -29 14 -17
-13 13 -30 -5 -106 -33 -130 -24 -23 -83 -12 -146 26 l-48 30 42 -41 c39 -37
46 -40 98 -40 31 0 69 7 85 15 16 8 63 22 103 29 41 8 90 21 110 30 l37 15 0
-61 c0 -76 25 -132 87 -196 50 -51 54 -50 75 31 11 44 14 47 45 47 41 0 48 22
39 130 -7 82 0 123 15 98 8 -11 10 -11 18 0 6 10 22 0 64 -42 31 -31 59 -56
64 -56 4 -1 41 -32 82 -70 l75 -69 -16 -40 c-14 -34 -14 -41 -3 -41 8 0 22 9
33 20 18 19 18 19 66 -20 54 -45 66 -48 89 -22 14 15 17 40 17 123 l0 105 -67
28 c-129 55 -345 195 -455 295 -35 31 -49 61 -29 61 4 0 64 -43 132 -96 68
-53 156 -118 194 -144 74 -50 187 -110 206 -110 16 0 6 56 -20 113 -12 25 -21
50 -21 55 0 4 -15 34 -34 65 -21 35 -30 57 -22 60 6 2 -11 7 -39 11 -121 19
-435 124 -435 147 0 15 27 10 103 -20 80 -32 254 -86 305 -95 31 -5 32 -4 21
16 -25 47 -220 230 -317 297 -64 44 -22 32 110 -32 207 -101 199 -98 285 -95
72 3 78 5 81 25 2 14 -7 32 -22 48 -14 14 -26 29 -26 33 0 18 -201 201 -258
237 -34 21 -62 41 -62 45 0 4 -16 10 -35 12 -29 3 -35 1 -35 -14z m58 -113
c-6 -14 -13 -23 -16 -21 -7 7 9 46 18 46 5 0 4 -11 -2 -25z m-24 -74 c11 -12
16 -24 13 -28 -8 -7 -45 24 -59 50 -8 16 -7 17 9 9 10 -6 27 -20 37 -31z
m-187 -241 c4 0 15 8 26 18 16 13 19 14 15 2 -2 -8 -17 -19 -32 -25 -23 -8
-30 -6 -42 10 -18 25 -18 33 4 37 11 2 18 -4 20 -19 2 -13 6 -23 9 -23z m-253
-25 c-22 -17 -34 -19 -34 -6 0 5 8 12 18 14 32 9 36 7 16 -8z m132 -109 c-14
-24 -26 -55 -26 -68 0 -28 -2 -31 -70 -109 -99 -115 -179 -194 -186 -186 -4 4
24 40 62 80 151 155 184 196 184 230 0 29 47 113 58 103 2 -3 -7 -25 -22 -50z
m154 -126 c0 -5 -4 -10 -10 -10 -5 0 -10 5 -10 10 0 6 5 10 10 10 6 0 10 -4
10 -10z"/>
<path d="M935 4630 c3 -5 8 -10 11 -10 2 0 4 5 4 10 0 6 -5 10 -11 10 -5 0 -7
-4 -4 -10z"/>
<path d="M4342 4615 c0 -16 2 -22 5 -12 2 9 2 23 0 30 -3 6 -5 -1 -5 -18z"/>
<path d="M865 4620 c-16 -4 -51 -8 -77 -9 -35 -1 -48 -5 -48 -15 0 -8 5 -18
10 -21 8 -5 7 -11 -1 -21 -9 -12 -6 -25 16 -67 24 -46 69 -97 86 -97 4 0 12
43 19 95 7 52 17 95 22 95 6 0 8 9 5 21 -4 15 -2 18 7 10 9 -8 13 -7 13 4 0
16 -6 17 -52 5z"/>
<path d="M7624 4595 c-9 -14 -14 -28 -11 -31 3 -3 12 9 20 25 19 38 14 40 -9
6z"/>
<path d="M4331 4564 c0 -11 3 -14 6 -6 3 7 2 16 -1 19 -3 4 -6 -2 -5 -13z"/>
<path d="M1470 4560 c-8 -5 -10 -10 -5 -10 6 0 17 5 25 10 8 5 11 10 5 10 -5
0 -17 -5 -25 -10z"/>
<path d="M2354 4551 c21 -23 26 -26 26 -11 0 5 -10 15 -22 21 -23 12 -23 12
-4 -10z"/>
<path d="M4316 4523 c-6 -14 -5 -15 5 -6 7 7 10 15 7 18 -3 3 -9 -2 -12 -12z"/>
<path d="M6007 4533 c-3 -5 -1 -17 4 -28 7 -17 8 -17 8 8 1 27 -4 34 -12 20z"/>
<path d="M6245 4515 c-4 -17 -13 -47 -21 -68 -8 -21 -12 -42 -9 -46 2 -5 0
-22 -5 -40 -8 -29 -7 -31 16 -31 13 0 24 6 24 13 0 7 13 20 29 30 29 17 30 17
45 -5 18 -25 32 -19 17 9 -5 10 -21 43 -34 73 -14 30 -32 64 -40 75 -15 19
-16 19 -22 -10z"/>
<path d="M6542 4521 c-10 -6 -9 -10 7 -14 25 -6 61 2 61 14 0 11 -51 11 -68 0z"/>
<path d="M1895 4501 c-5 -18 -13 -19 -76 -14 -69 6 -70 6 -104 -27 -29 -28
-32 -36 -22 -48 7 -10 12 -48 12 -103 0 -82 -1 -88 -19 -83 -12 4 -16 2 -12
-5 4 -6 0 -14 -8 -17 -9 -3 -16 -12 -16 -20 0 -18 8 -18 27 2 11 11 19 12 26
5 8 -8 5 -15 -8 -25 -18 -13 -17 -14 7 -30 14 -9 33 -14 42 -10 18 7 21 20 6
29 -15 9 8 35 31 35 27 0 33 -19 13 -41 -9 -10 -14 -22 -11 -25 9 -9 37 15 37
32 0 8 5 14 11 14 6 0 8 -7 5 -16 -5 -12 -2 -15 10 -10 8 3 37 6 64 6 45 0 48
2 46 23 -1 13 -5 27 -8 32 -3 6 -3 47 0 92 3 61 8 80 17 76 11 -4 11 3 1 34
-11 35 -53 113 -61 113 -2 0 -6 -9 -10 -19z m0 -51 c3 -5 1 -10 -4 -10 -6 0
-11 5 -11 10 0 6 2 10 4 10 3 0 8 -4 11 -10z m19 -147 c3 -21 2 -56 -2 -78 -6
-34 -11 -40 -32 -40 -24 0 -25 2 -28 78 l-3 77 30 0 c26 0 30 -4 35 -37z
m-179 -163 c3 -5 2 -10 -4 -10 -5 0 -13 5 -16 10 -3 6 -2 10 4 10 5 0 13 -4
16 -10z"/>
<path d="M6754 4438 l-19 -23 23 19 c12 11 22 21 22 23 0 8 -8 2 -26 -19z"/>
<path d="M6659 4391 c15 -28 15 -29 -19 -36 -16 -4 -30 -13 -30 -21 0 -8 -11
-24 -25 -36 -29 -26 -33 -42 -6 -33 15 4 24 -7 48 -62 17 -38 27 -71 21 -74
-5 -3 -2 -12 7 -19 23 -19 46 -66 40 -82 -5 -13 -133 -78 -153 -78 -13 0 -46
62 -68 130 -11 36 -33 84 -47 108 -29 45 -36 46 -105 21 -13 -5 -33 -9 -45 -9
-18 0 -19 2 -7 10 17 11 1 13 -24 4 -9 -3 -13 -11 -9 -17 4 -6 1 -7 -6 -3 -13
9 -71 -12 -71 -24 0 -5 -13 -13 -29 -18 -25 -9 -31 -18 -41 -69 -7 -32 -16
-71 -21 -87 -10 -34 -10 -35 21 -41 13 -3 28 -10 34 -16 11 -11 5 -11 -69 7
-17 4 -20 0 -19 -31 2 -60 21 -85 66 -85 62 0 80 26 107 155 13 61 28 113 35
117 33 22 51 7 94 -82 55 -113 74 -137 120 -151 32 -9 46 -7 106 15 68 26 70
26 90 7 31 -28 192 -100 259 -115 l59 -14 34 37 c18 20 33 43 33 51 0 10 -6 6
-19 -10 -10 -14 -26 -34 -35 -45 -16 -20 -16 -20 -12 5 2 14 8 32 11 41 5 12
1 18 -16 22 -48 11 -183 78 -180 89 2 6 12 24 23 40 11 15 16 28 10 28 -20 0
-11 17 14 28 26 12 34 52 17 80 -9 14 -23 1 -55 -50 -18 -29 -47 -38 -47 -15
0 6 7 25 15 41 8 15 15 35 15 42 0 17 43 19 72 3 11 -6 18 -7 15 -1 -4 5 -1
16 6 25 11 15 19 11 74 -36 34 -28 57 -54 52 -58 -12 -7 7 -24 37 -33 22 -7
70 -83 60 -94 -4 -3 -27 4 -52 17 -66 32 -64 20 3 -20 31 -19 58 -39 60 -45 2
-6 -11 -18 -29 -27 -25 -12 -29 -17 -16 -22 26 -10 97 63 102 104 2 19 11 40
21 47 9 7 14 18 10 24 -4 6 -13 2 -25 -12 -13 -17 -22 -20 -30 -12 -13 13 14
40 45 46 24 4 66 64 58 84 -3 8 -53 37 -112 65 -181 87 -396 193 -401 199 -3
3 -22 7 -43 9 -36 2 -38 1 -28 -18z m70 -152 c17 -6 31 -13 31 -16 0 -2 -17
-24 -37 -49 l-37 -44 -19 36 c-17 33 -17 37 -2 60 18 27 21 28 64 13z m-578
-178 c-5 -14 -13 -41 -16 -58 -9 -44 -25 -42 -25 2 0 19 5 35 11 35 8 0 10 14
6 41 -4 32 -2 39 9 35 8 -3 15 1 15 12 1 9 4 4 6 -12 3 -15 0 -40 -6 -55z
m899 24 c7 -8 8 -15 2 -15 -5 0 -15 7 -22 15 -7 8 -8 15 -2 15 5 0 15 -7 22
-15z m75 -105 c3 -5 2 -10 -4 -10 -5 0 -13 5 -16 10 -3 6 -2 10 4 10 5 0 13
-4 16 -10z m-252 -132 c26 -4 37 -38 12 -38 -9 0 -33 9 -53 20 -20 11 -54 26
-74 34 -42 17 -48 38 -17 59 19 14 24 12 65 -28 24 -24 54 -45 67 -47z m-323
62 c0 -17 -49 -35 -61 -23 -6 6 -8 16 -5 22 9 14 66 14 66 1z m-438 -42 c-5
-5 -19 -5 -35 1 -37 14 -34 18 9 13 22 -3 32 -8 26 -14z"/>
<path d="M3620 4355 c-7 -8 -48 -34 -92 -57 -44 -24 -91 -54 -105 -67 l-24
-25 38 -33 c21 -18 69 -51 107 -74 76 -46 110 -78 131 -125 12 -25 12 -41 1
-93 -15 -74 -33 -100 -117 -168 -96 -79 -149 -80 -220 -7 -35 36 -66 44 -76
19 -11 -29 -61 -45 -163 -51 -121 -8 -138 -19 -132 -83 2 -23 8 -38 13 -35 6
3 15 1 22 -4 7 -5 38 -15 69 -22 32 -6 60 -15 63 -20 5 -9 -58 -60 -75 -60 -6
0 -28 11 -50 25 -22 14 -46 25 -54 25 -8 0 -18 4 -21 10 -4 6 1 7 11 3 12 -4
15 -3 10 5 -9 15 -73 16 -78 1 -2 -6 -17 -10 -33 -10 -17 1 -46 1 -65 0 -85
-4 -109 -1 -172 18 -62 20 -66 20 -71 4 -2 -11 -18 -21 -37 -24 -51 -11 -228
-8 -235 3 -3 6 0 10 7 11 18 1 -43 28 -66 29 -10 0 -31 -11 -48 -25 -44 -37
-98 -33 -77 6 7 15 6 17 -6 13 -8 -4 -15 -15 -15 -25 0 -12 -7 -19 -20 -19
-43 0 -113 -51 -90 -65 5 -3 10 0 10 8 0 17 43 41 62 34 8 -3 3 -9 -14 -17
-15 -7 -30 -20 -32 -29 -16 -54 -98 -400 -100 -420 -2 -19 -12 -27 -42 -36
-35 -10 -37 -12 -16 -19 12 -4 22 -11 22 -16 0 -28 89 -30 1025 -25 528 2 983
3 1010 3 28 -1 201 -2 385 -2 329 -1 336 -1 393 22 45 19 64 33 84 65 l26 41
38 -45 37 -44 169 -2 c129 -1 177 -5 205 -17 32 -14 102 -16 522 -16 424 -1
490 1 516 15 17 9 34 23 37 31 3 8 18 14 36 14 48 0 20 12 -48 19 -5 1 -2 7 7
14 12 10 21 45 32 123 8 60 18 124 22 142 4 20 3 32 -4 32 -7 0 -5 10 4 28 7
15 14 39 14 54 0 25 -2 27 -30 21 l-31 -6 23 36 c13 20 32 37 43 39 17 3 16 6
-14 27 -33 24 -33 24 -21 2 11 -21 10 -22 -12 -10 -24 13 -172 14 -192 1 -6
-4 25 -10 69 -13 l80 -5 -96 -2 c-57 -1 -100 -7 -107 -14 -6 -6 -15 -8 -19 -4
-5 4 1 14 12 23 20 15 20 15 0 10 -11 -3 -72 -8 -135 -12 l-115 -6 41 24 c54
32 165 74 234 88 49 10 202 88 215 109 3 5 22 6 43 3 33 -6 35 -4 24 9 -16 20
1 68 25 68 9 0 30 4 47 9 144 43 177 51 207 51 l34 1 -28 15 c-25 13 -33 13
-93 -6 -36 -11 -70 -18 -74 -15 -5 3 -28 -1 -52 -10 -65 -22 -70 -21 -64 24 3
33 -3 52 -37 113 -23 40 -49 74 -59 76 -16 3 -20 -6 -58 -151 -15 -57 -43 -79
-109 -87 -38 -4 -46 -9 -51 -29 -6 -27 -30 -41 -30 -18 0 8 -8 17 -17 21 -10
3 -23 8 -29 11 -6 3 -15 -4 -19 -17 -7 -21 -8 -20 -12 10 -3 19 -10 32 -19 32
-10 0 -14 -14 -14 -52 0 -104 -45 -142 -175 -153 -47 -4 -88 -11 -91 -16 -3
-5 0 -9 6 -9 7 0 10 -7 6 -15 -4 -10 5 -20 27 -30 l32 -15 -30 5 c-16 3 -39 8
-50 11 -19 5 -19 4 -2 -10 17 -13 14 -14 -35 -14 -62 1 -214 0 -277 -2 -24 0
-50 -8 -58 -16 -8 -8 -18 -12 -23 -9 -5 3 -27 -13 -50 -35 -22 -22 -45 -40
-50 -40 -5 0 -25 14 -43 30 -19 17 -49 33 -66 36 -29 6 -30 8 -14 20 10 8 49
23 87 35 38 11 110 38 159 60 50 21 103 39 119 39 24 0 28 4 28 30 0 20 -5 30
-15 30 -17 0 -21 35 -5 45 24 15 6 25 -42 25 -70 0 -123 15 -180 52 -46 29
-49 29 -140 23 -51 -4 -121 -14 -156 -21 -98 -23 -188 -21 -220 3 -32 23 -51
71 -51 130 -1 59 -17 98 -35 84 -15 -13 -86 -217 -86 -248 0 -36 -33 -118 -58
-145 -21 -23 -34 -28 -71 -28 -26 0 -62 5 -81 10 -25 7 -49 7 -83 -1 -60 -14
-105 -6 -140 26 -15 14 -27 20 -27 13 0 -17 -29 24 -30 41 0 8 -8 23 -17 34
-10 11 -12 17 -6 13 9 -5 11 -2 7 8 -3 9 -12 16 -20 16 -7 0 -11 6 -8 13 3 8
-2 20 -11 27 -8 7 -15 24 -15 39 -1 28 -21 61 -37 61 -6 0 -13 26 -16 59 -4
32 -14 79 -24 104 -19 49 -92 139 -105 131 -4 -3 -8 16 -8 41 0 37 -6 54 -32
86 -33 41 -57 49 -78 24z m117 -180 c0 -8 -4 -12 -9 -9 -4 3 -8 9 -8 15 0 5 4
9 8 9 5 0 9 -7 9 -15z m2609 -413 c-18 -16 -18 -16 -6 6 6 13 14 21 18 18 3
-4 -2 -14 -12 -24z m-1369 -104 c13 -12 23 -29 22 -37 0 -11 -2 -12 -6 -3 -12
30 -20 -3 -15 -66 l4 -69 -43 -8 c-24 -5 -48 -9 -54 -9 -21 -2 -8 84 20 125
23 35 25 45 16 65 -9 21 -8 24 11 24 12 0 32 -10 45 -22z m-507 -20 c0 -16 51
-68 67 -68 7 0 13 -3 13 -8 0 -16 -30 -50 -50 -55 -21 -5 -28 7 -10 18 16 10
12 33 -15 75 -28 44 -30 50 -15 50 6 0 10 -5 10 -12z m-1050 -92 c30 -25 32
-29 17 -38 -17 -9 -24 -48 -8 -48 10 0 -5 -90 -18 -103 -9 -9 -11 -4 -31 70
-6 24 -19 47 -29 53 -16 8 -18 20 -16 67 1 32 3 59 4 61 1 4 27 -16 81 -62z
m556 5 c-9 -10 -21 -35 -27 -55 -6 -20 -16 -36 -24 -36 -8 0 -15 5 -15 10 0 6
4 10 9 10 5 0 11 14 15 32 7 37 23 58 44 58 13 0 13 -3 -2 -19z m97 -121 c44
-50 74 -77 83 -73 9 3 14 -2 15 -18 1 -31 6 -15 14 44 l6 47 90 0 c49 0 89 -3
89 -7 -1 -16 -29 -57 -30 -44 0 10 -3 11 -9 5 -8 -7 -51 -209 -51 -236 0 -5
26 -8 58 -8 l58 0 -10 -45 -11 -45 -102 0 c-76 0 -103 3 -103 13 0 6 9 61 20
121 23 125 24 146 6 96 l-13 -35 -16 35 c-15 34 -15 35 -16 8 -1 -22 -6 -28
-23 -28 -13 0 -33 -3 -45 -6 -38 -10 -28 24 12 40 19 8 35 21 35 28 0 8 -20
34 -45 58 -51 50 -62 44 -13 -7 35 -36 34 -38 -31 -74 -32 -17 -45 -21 -48
-11 -14 40 -83 -19 -83 -72 0 -48 9 -66 37 -77 40 -15 87 11 106 60 16 39 19
41 58 41 41 0 41 0 35 -30 -3 -17 -15 -40 -26 -52 -19 -20 -24 -33 -21 -50 2
-13 -52 -48 -92 -59 -30 -8 -51 -8 -83 1 -86 24 -125 102 -100 201 8 29 12 59
9 66 -10 25 45 82 97 100 45 16 50 21 55 55 4 21 10 38 13 37 4 0 38 -36 75
-79z m-1219 51 c6 -10 -63 -26 -71 -17 -3 3 0 8 8 10 8 2 21 7 29 9 23 8 28 8
34 -2z m441 -6 c6 -2 -27 -4 -72 -4 -77 -1 -82 -2 -106 -31 -14 -16 -27 -35
-30 -42 -2 -7 -7 -10 -11 -6 -10 9 20 64 44 81 15 10 41 13 93 10 40 -3 77 -6
82 -8z m900 5 c3 -5 2 -10 -4 -10 -6 0 -19 -10 -31 -22 l-20 -22 0 22 c0 29
42 54 55 32z m245 0 c0 -5 -7 -10 -16 -10 -8 0 -12 5 -9 10 3 6 10 10 16 10 5
0 9 -4 9 -10z m873 -4 c-67 -21 -108 -53 -134 -101 -23 -43 -39 -57 -39 -35 0
24 32 70 71 103 42 37 61 44 114 45 27 1 25 -1 -12 -12z m236 10 c-10 -9 -109
-14 -104 -6 4 6 29 10 57 10 28 0 49 -2 47 -4z m206 -6 c-28 -12 -47 -12 -40
0 3 6 18 10 33 9 24 0 25 -1 7 -9z m-2255 -13 c-22 -11 -28 -27 -53 -147 -27
-131 -32 -148 -42 -138 -6 6 44 257 56 281 6 10 21 17 37 17 l27 0 -25 -13z
m193 6 c-29 -2 -77 -2 -105 0 -29 2 -6 3 52 3 58 0 81 -1 53 -3z m1227 -34
c-25 -11 -61 -36 -80 -54 l-36 -35 -17 30 -18 30 35 0 c19 0 38 5 42 11 9 16
65 38 94 38 20 1 16 -4 -20 -20z m508 -19 c37 -17 44 -17 48 -5 10 25 199 21
241 -5 l32 -19 3 22 c3 21 8 22 125 25 l123 3 20 -43 c11 -24 42 -67 69 -97
l48 -55 1 70 c0 64 0 66 -10 32 -19 -71 -53 -36 -46 48 l3 39 93 3 c58 2 92
-1 92 -7 0 -6 -10 -13 -22 -15 -13 -3 -32 -7 -43 -9 -12 -3 -6 -5 13 -6 27 -1
32 -4 28 -18 -4 -15 -33 -175 -52 -290 -3 -18 -11 -33 -18 -33 -13 0 -126 148
-139 180 -3 8 -6 -8 -6 -36 -1 -28 -4 -72 -7 -98 l-7 -46 -49 0 c-49 0 -49 0
-44 28 7 34 36 258 36 279 0 12 -3 13 -14 4 -12 -10 -15 -8 -18 11 -2 17 -10
23 -28 24 -21 1 -21 0 -3 -3 12 -2 20 -10 18 -16 -3 -7 -16 -82 -31 -167 -14
-85 -27 -156 -28 -158 -2 -1 -22 -4 -45 -7 -48 -5 -47 -10 -26 120 17 101 20
188 6 166 -7 -11 -13 -8 -26 13 -10 14 -22 26 -28 26 -5 0 -3 -8 6 -18 26 -28
31 -75 13 -110 -20 -38 -92 -90 -132 -94 -37 -4 -44 -14 -44 -65 l0 -43 -45 0
c-53 0 -52 -4 -30 144 8 55 15 113 14 130 -1 30 -1 30 -9 6 -4 -14 -9 -18 -9
-10 -1 8 -11 26 -22 40 -18 23 -19 23 -9 3 7 -16 7 -23 0 -23 -5 0 -19 -9 -30
-20 -19 -19 -25 -20 -55 -9 -38 14 -49 10 -39 -14 8 -22 73 -59 87 -51 7 4 9
4 5 -1 -4 -4 0 -20 9 -35 21 -37 11 -71 -35 -120 -32 -34 -43 -40 -79 -40 -51
0 -88 16 -107 45 -14 21 -13 25 14 50 28 27 30 28 49 11 21 -19 72 -19 78 0 2
6 -19 28 -47 48 -28 20 -57 51 -64 68 l-13 30 -7 -26 c-8 -33 -34 -34 -42 -1
-11 43 33 116 86 143 54 27 92 28 148 2z m-2489 0 c45 -12 89 -55 110 -105
l18 -39 37 67 c21 37 42 69 47 73 10 6 149 7 155 2 3 -4 54 -373 54 -392 -1
-39 -23 43 -49 188 -17 93 -33 172 -36 174 -14 14 -14 -14 0 -104 8 -54 16
-127 19 -161 2 -34 7 -66 11 -72 4 -7 -9 -11 -39 -11 -44 0 -45 1 -52 35 -6
34 -7 34 -62 37 -33 2 -57 8 -60 16 -3 9 15 12 66 12 l70 0 6 -35 c6 -28 12
-35 30 -35 l22 0 -18 91 c-10 50 -20 95 -23 100 -14 22 -25 5 -25 -41 l0 -50
-56 0 c-34 0 -53 4 -49 10 3 6 21 10 40 10 19 0 36 3 38 8 3 4 2 31 0 60 l-6
53 -26 -38 c-20 -31 -26 -34 -29 -20 -3 16 -8 13 -26 -15 -29 -42 -96 -163
-96 -171 0 -4 11 -7 25 -7 14 0 25 -4 25 -10 0 -5 -20 -10 -44 -10 l-45 0 47
88 c28 53 39 81 27 72 -17 -14 -18 -14 -7 7 21 38 -36 145 -93 175 -11 6 -6
-2 12 -19 37 -35 53 -81 32 -94 -21 -13 -79 -11 -79 3 0 6 -7 19 -15 29 -13
13 -24 15 -52 9 -19 -5 -40 -13 -46 -19 -6 -6 -18 -11 -27 -11 -9 0 -24 -16
-33 -36 -14 -28 -21 -34 -31 -25 -24 20 -28 -56 -6 -107 20 -46 21 -64 1 -40
-6 7 -22 26 -36 42 -13 16 -21 34 -17 40 12 18 34 128 36 176 1 55 -16 64 -28
15 l-10 -36 -93 3 c-82 3 -93 1 -93 -14 0 -9 -4 -20 -10 -23 -25 -15 -3 -20
87 -17 97 2 98 2 74 -16 -17 -14 -22 -25 -16 -40 6 -21 4 -22 -65 -22 -39 0
-80 5 -91 10 -12 7 -19 7 -19 1 0 -5 -10 -11 -22 -13 -17 -2 -25 -14 -35 -53
-7 -27 -13 -53 -13 -57 0 -4 53 -9 117 -10 85 -2 118 -7 121 -16 3 -10 -16
-13 -84 -12 -49 1 -110 4 -135 7 l-45 5 33 152 c32 141 35 196 13 196 -12 0
-24 -20 -28 -50 -2 -14 -16 -52 -33 -86 -16 -33 -29 -65 -29 -71 0 -6 -10 -17
-23 -25 -12 -9 -27 -34 -33 -56 -11 -40 -10 -41 14 -44 45 -5 38 -28 -8 -28
-39 0 -42 2 -36 23 4 12 17 63 31 112 13 50 27 99 30 110 4 11 -14 -17 -40
-62 -32 -54 -52 -80 -61 -76 -8 3 -14 0 -14 -6 0 -6 -7 -8 -17 -4 -12 5 -14 3
-8 -7 6 -10 4 -12 -9 -7 -14 6 -15 3 -6 -13 7 -14 7 -20 0 -20 -22 0 -8 -19
17 -22 45 -5 40 -28 -6 -28 -41 0 -41 0 -41 38 0 22 -3 74 -7 117 l-6 78 -28
-99 c-17 -61 -24 -103 -18 -108 18 -19 9 -26 -32 -26 l-42 0 24 -19 c27 -21
69 -22 92 -3 10 9 17 10 22 2 9 -14 88 -13 103 2 9 9 12 9 12 0 0 -8 18 -12
53 -12 29 0 58 5 65 12 9 9 12 9 12 0 0 -9 42 -12 160 -12 103 0 160 -4 160
-10 0 -15 -560 -13 -577 2 -9 7 -13 7 -13 -1 0 -7 -25 -11 -70 -11 -56 0 -70
3 -70 15 0 9 23 107 51 220 l51 204 364 1 c319 0 363 -2 358 -15 -4 -8 -10
-12 -15 -9 -5 3 -9 -5 -9 -18 0 -13 4 -18 8 -13 38 52 142 78 221 55z m921 1
c0 -6 -4 -13 -10 -16 -5 -3 -10 -16 -10 -28 -1 -22 -1 -22 -15 -3 -8 11 -15
18 -16 15 0 -2 -17 -80 -38 -174 l-37 -170 -33 -3 c-57 -6 -60 -1 -46 67 l13
61 -43 0 -43 0 -13 -65 -13 -65 -44 0 -45 0 6 48 c3 26 9 63 13 82 4 19 4 33
1 30 -7 -6 -47 -183 -43 -187 1 -2 72 -4 157 -4 158 -2 183 -5 173 -20 -3 -5
-84 -9 -180 -9 -162 0 -175 1 -170 18 3 9 21 103 41 207 20 105 38 198 41 208
5 15 22 17 180 17 102 0 174 -4 174 -9z m826 -17 c15 -11 36 -31 46 -45 22
-30 40 -89 27 -89 -5 0 -9 9 -9 19 0 11 -11 33 -25 48 l-26 28 22 -43 c30 -60
21 -120 -26 -178 -19 -23 -35 -47 -35 -52 0 -21 -81 -42 -161 -42 l-81 0 7 53
c4 28 13 83 21 120 18 87 17 127 -2 68 -7 -24 -17 -47 -20 -50 -8 -7 4 167 12
181 4 6 52 8 114 6 91 -2 113 -6 136 -24z m340 -10 c36 -17 72 -63 40 -51 -14
6 -15 3 -5 -14 9 -17 8 -23 -2 -30 -19 -12 -56 -11 -64 1 -10 17 -35 11 -35
-7 0 -31 39 -86 53 -75 17 13 77 25 77 15 0 -4 -7 -17 -15 -27 -20 -27 -19
-43 5 -49 17 -4 19 -11 14 -39 -4 -18 -8 -35 -10 -37 -6 -6 -64 21 -64 30 0 5
-9 0 -20 -11 -27 -27 -89 -27 -123 0 -45 35 -43 92 4 130 15 12 17 21 10 45
-8 26 -10 27 -11 8 -2 -13 -3 -26 -4 -30 -2 -14 -50 -73 -58 -73 -14 0 -9 57
7 70 8 7 15 23 15 37 0 88 102 147 186 107z m98 -129 c-4 -9 -19 -15 -37 -15
-29 0 -30 1 -11 15 26 19 55 20 48 0z m-2142 -37 c-7 -7 -43 -15 -79 -18 -76
-6 -103 -30 -34 -30 44 0 47 -4 31 -44 -11 -29 -73 -52 -113 -42 -33 8 -57 32
-57 57 0 24 18 25 27 2 9 -25 23 -33 60 -33 41 0 63 9 63 26 0 9 -12 14 -35
14 -37 0 -42 9 -29 58 6 21 12 22 92 22 69 0 84 -3 74 -12z m2278 -36 c0 -21
-86 -80 -98 -68 -9 10 60 76 80 76 10 0 18 -4 18 -8z m-130 -11 c0 -5 -7 -11
-15 -15 -15 -5 -20 5 -8 17 9 10 23 9 23 -2z m-1133 -12 c31 14 43 7 13 -9
-27 -14 -62 -9 -68 10 -5 13 -3 13 12 1 13 -11 22 -12 43 -2z m413 -2 c0 -12
-11 -13 -78 -9 -41 3 -12 22 34 22 29 0 44 -4 44 -13z m-1814 -62 c-22 -17
-196 -22 -196 -6 0 16 22 19 120 20 86 0 93 -1 76 -14z m354 -23 c0 -24 -129
-59 -157 -43 -15 8 -14 10 12 15 17 4 48 13 70 20 48 16 75 19 75 8z m3227
-80 l38 -10 -45 -1 c-40 -1 -48 3 -72 33 -42 53 -36 79 7 29 22 -26 48 -45 72
-51z m-2997 66 c0 -4 -12 -8 -26 -8 -14 0 -23 4 -20 8 2 4 14 8 25 8 12 0 21
-4 21 -8z m1695 -13 c22 -8 57 -14 78 -15 25 0 36 -4 31 -11 -12 -20 -122 -6
-147 19 -25 26 -17 27 38 7z m203 -10 c17 -4 32 -11 32 -16 0 -12 -57 -11 -81
1 -24 13 -25 33 -1 26 9 -2 32 -7 50 -11z m158 -10 c34 -18 63 -25 103 -25 44
-1 52 -3 38 -11 -31 -18 -114 -12 -151 11 -19 11 -37 27 -40 35 -7 20 -5 19
50 -10z m-1146 -5 c0 -18 -65 -44 -115 -44 -52 -1 -115 19 -115 36 0 6 8 7 18
3 37 -16 127 -17 162 -2 43 19 50 20 50 7z m556 -15 c-27 -20 -75 -25 -314
-27 -138 -2 -211 0 -209 7 2 6 99 12 249 15 136 3 250 8 254 13 4 4 14 7 23 7
13 -1 13 -3 -3 -15z m-1742 -16 c-17 -19 -27 -21 -85 -17 -36 3 -73 9 -82 14
-11 7 6 8 51 6 37 -2 78 1 92 7 39 15 45 13 24 -10z m199 1 c-5 -18 -14 -20
-99 -20 -55 0 -94 4 -94 10 0 13 31 19 115 23 39 2 73 4 77 5 3 1 4 -7 1 -18z
m265 -7 c3 -10 -19 -13 -87 -13 -100 0 -125 17 -33 23 87 6 115 3 120 -10z
m2232 7 c0 -6 -37 -10 -91 -10 -57 0 -88 4 -84 10 3 6 44 10 91 10 49 0 84 -4
84 -10z m174 2 c2 -4 -11 -6 -30 -4 -19 2 -34 6 -34 8 0 8 59 4 64 -4z m139 1
c-7 -2 -21 -2 -30 0 -10 3 -4 5 12 5 17 0 24 -2 18 -5z"/>
<path d="M5617 3304 c-4 -4 -7 -20 -7 -36 0 -21 5 -28 19 -28 25 0 53 28 49
49 -3 16 -48 28 -61 15z"/>
<path d="M2150 3333 c0 -33 -3 -76 -6 -94 -6 -32 -5 -33 8 -14 35 47 39 128 9
158 -8 8 -11 -5 -11 -50z"/>
<path d="M1948 2993 c7 -3 16 -2 19 1 4 3 -2 6 -13 5 -11 0 -14 -3 -6 -6z"/>
<path d="M3667 3403 c-4 -3 -7 -15 -7 -27 0 -19 0 -19 -14 -1 -12 17 -14 14
-25 -34 -17 -80 -16 -83 27 -79 31 2 38 7 40 28 3 24 3 24 -11 5 -9 -11 -19
-16 -23 -12 -5 4 -3 11 3 15 6 4 14 31 18 60 7 51 5 59 -8 45z"/>
<path d="M4542 3235 c-7 -35 -15 -72 -19 -81 -6 -15 -1 -16 33 -11 49 8 84 46
84 92 0 41 -22 65 -59 65 -26 0 -28 -4 -39 -65z"/>
<path d="M4916 3191 c-10 -16 5 -41 24 -41 16 0 17 3 7 25 -13 26 -22 31 -31
16z"/>
<path d="M610 4350 c-9 -6 -10 -10 -3 -10 6 0 15 5 18 10 8 12 4 12 -15 0z"/>
<path d="M620 4311 c0 -9 8 -17 18 -17 9 0 34 -4 55 -8 40 -8 52 7 15 19 -75
22 -88 23 -88 6z"/>
<path d="M6149 4313 c-13 -16 -12 -17 4 -4 16 13 21 21 13 21 -2 0 -10 -8 -17
-17z"/>
<path d="M2268 4313 c7 -3 16 -2 19 1 4 3 -2 6 -13 5 -11 0 -14 -3 -6 -6z"/>
<path d="M6405 4303 c-30 -7 -41 -21 -22 -29 9 -3 33 0 54 7 21 7 44 12 52 10
7 -1 10 2 6 8 -6 11 -53 13 -90 4z"/>
<path d="M5525 4280 c-8 -13 5 -13 25 0 13 8 13 10 -2 10 -9 0 -20 -4 -23 -10z"/>
<path d="M7128 4262 c7 -5 10 -16 6 -25 -3 -10 -1 -17 5 -17 6 0 11 7 11 15 0
8 6 15 13 15 8 0 7 4 -3 10 -8 5 -22 10 -30 10 -12 0 -12 -2 -2 -8z"/>
<path d="M3741 4234 c0 -11 3 -14 6 -6 3 7 2 16 -1 19 -3 4 -6 -2 -5 -13z"/>
<path d="M7160 4216 c0 -2 7 -7 16 -10 8 -3 12 -2 9 4 -6 10 -25 14 -25 6z"/>
<path d="M5648 4203 c7 -3 16 -2 19 1 4 3 -2 6 -13 5 -11 0 -14 -3 -6 -6z"/>
<path d="M555 4190 c3 -5 8 -10 11 -10 2 0 4 5 4 10 0 6 -5 10 -11 10 -5 0 -7
-4 -4 -10z"/>
<path d="M7366 4155 c-6 -16 3 -19 28 -9 22 8 20 24 -3 24 -10 0 -21 -7 -25
-15z"/>
<path d="M1915 4130 c3 -5 8 -10 11 -10 2 0 4 5 4 10 0 6 -5 10 -11 10 -5 0
-7 -4 -4 -10z"/>
<path d="M594 4043 c-41 -43 -85 -91 -97 -107 -12 -15 -44 -56 -71 -90 -27
-33 -51 -63 -52 -65 -2 -1 -13 4 -26 13 -28 20 -39 20 -32 1 11 -27 -10 -15
-43 23 -21 26 -28 43 -23 52 7 11 21 4 65 -29 31 -24 58 -41 61 -39 5 5 -105
88 -116 88 -5 0 -6 10 -3 23 9 46 -67 -121 -84 -183 -22 -80 -26 -341 -6 -361
18 -18 50 15 125 126 55 81 61 95 61 140 0 35 2 44 8 30 7 -18 8 -17 8 7 2 53
84 166 230 316 45 46 81 86 81 89 0 8 -71 -55 -102 -91 -15 -17 -27 -27 -28
-21 0 5 33 42 72 82 40 40 67 73 60 73 -7 0 -47 -35 -88 -77z m-74 -116 c0 -2
-10 -12 -21 -23 -22 -19 -22 -19 -10 4 10 18 31 31 31 19z m-217 -169 c20 -8
24 -13 16 -19 -7 -4 -29 1 -51 12 -63 32 -42 37 35 7z m6 -55 c2 -2 2 -5 -1
-8 -7 -7 -58 34 -58 47 0 7 12 1 28 -13 15 -13 29 -25 31 -26z m-13 -41 c-6
-5 -59 32 -77 55 -8 9 7 2 33 -17 27 -18 46 -35 44 -38z"/>
<path d="M2366 4087 c3 -10 9 -15 12 -12 3 3 0 11 -7 18 -10 9 -11 8 -5 -6z"/>
<path d="M6930 4070 c0 -5 7 -10 16 -10 8 0 12 5 9 10 -3 6 -10 10 -16 10 -5
0 -9 -4 -9 -10z"/>
<path d="M4399 4011 c-8 -17 -17 -31 -21 -31 -8 0 -34 -80 -42 -130 -4 -25 -1
-42 10 -55 13 -17 15 -17 10 -3 -6 21 27 158 50 206 9 19 14 36 11 38 -3 3
-11 -9 -18 -25z"/>
<path d="M4780 4029 c0 -13 14 -17 35 -9 17 6 16 7 -8 12 -15 3 -27 2 -27 -3z"/>
<path d="M260 3980 c0 -12 60 -44 68 -36 3 3 -9 11 -27 17 -24 9 -29 14 -19
20 10 7 9 9 -4 9 -10 0 -18 -4 -18 -10z"/>
<path d="M2133 3923 c-48 -62 -62 -73 -103 -79 -22 -4 -40 -11 -40 -17 0 -6
18 -35 41 -65 53 -70 90 -86 178 -76 l66 8 -42 9 c-24 6 -43 13 -43 16 0 3 14
14 31 24 20 11 29 22 25 32 -3 8 -1 15 4 15 5 0 -1 15 -14 34 -12 19 -29 55
-36 79 -16 60 -33 65 -67 20z"/>
<path d="M809 3855 c-3 -55 -4 -102 -2 -104 10 -13 13 17 11 105 l-3 99 -6
-100z"/>
<path d="M371 3926 c2 -2 15 -9 29 -15 24 -11 24 -11 6 3 -16 13 -49 24 -35
12z"/>
<path d="M1257 3913 c-10 -10 -8 -66 3 -83 6 -10 10 -11 10 -2 0 6 9 12 20 12
25 0 25 7 0 48 -21 34 -23 36 -33 25z"/>
<path d="M2837 3795 c-4 -8 -2 -28 4 -43 9 -24 11 -25 20 -9 13 22 8 59 -7 64
-6 2 -14 -3 -17 -12z"/>
<path d="M7040 3793 c0 -5 -14 -17 -31 -27 l-31 -18 31 -19 c17 -10 42 -22 57
-25 l26 -7 -16 31 c-9 17 -16 38 -16 46 0 8 -4 18 -10 21 -5 3 -10 2 -10 -2z"/>
<path d="M708 3763 c7 -3 16 -2 19 1 4 3 -2 6 -13 5 -11 0 -14 -3 -6 -6z"/>
<path d="M2711 3753 c-29 -12 -48 -13 -114 -4 -44 6 -83 11 -87 11 -4 0 -10
-19 -14 -42 -4 -23 -12 -48 -18 -55 -12 -15 -32 -18 -24 -4 10 15 -5 43 -19
37 -8 -3 -16 3 -20 12 -5 14 -7 14 -15 2 -15 -24 -12 -36 13 -48 21 -10 21
-11 2 -12 -11 0 -31 -7 -44 -14 -23 -13 -23 -13 -3 -18 12 -3 22 -2 24 4 2 6
13 6 29 -1 14 -5 62 -9 107 -9 86 0 113 -10 105 -40 -3 -12 4 -22 21 -30 32
-14 32 -10 4 39 -23 41 -19 61 8 38 9 -8 27 -12 39 -11 13 2 26 -2 30 -8 3 -5
11 -8 16 -5 5 3 25 1 46 -4 30 -9 38 -8 49 7 10 13 9 19 -5 29 -13 10 -14 15
-3 33 10 17 10 23 -2 35 -8 8 -20 28 -28 45 -15 34 -41 38 -97 13z"/>
<path d="M2343 3741 c-10 -16 -9 -20 3 -25 26 -10 40 -8 27 5 -6 6 -9 18 -6
25 8 21 -10 17 -24 -5z"/>
<path d="M840 3731 c0 -11 39 -26 47 -17 8 8 3 12 -24 20 -13 4 -23 3 -23 -3z"/>
<path d="M5510 3703 c0 -17 35 -83 47 -87 7 -3 13 -1 13 4 0 5 8 6 17 3 9 -4
-3 15 -28 40 -45 48 -49 52 -49 40z"/>
<path d="M881 3683 c1 -10 5 -29 9 -43 7 -21 8 -19 9 18 1 23 -3 42 -9 42 -5
0 -10 -8 -9 -17z"/>
<path d="M2315 3674 c-27 -7 -75 -14 -105 -14 l-55 0 30 -16 c16 -8 32 -19 35
-25 4 -5 28 -3 61 5 89 24 109 34 103 51 -7 17 -4 17 -69 -1z"/>
<path d="M396 3644 c-4 -9 -4 -19 -1 -22 2 -3 7 3 11 12 4 9 4 19 1 22 -2 3
-7 -3 -11 -12z"/>
<path d="M1578 3643 c7 -3 16 -2 19 1 4 3 -2 6 -13 5 -11 0 -14 -3 -6 -6z"/>
<path d="M1202 3618 c-26 -16 -54 -21 -154 -24 -80 -2 -124 -7 -129 -15 -5 -8
-9 -4 -12 12 -3 15 -5 11 -4 -11 2 -29 5 -34 22 -31 11 1 43 3 70 2 126 -2
227 28 238 72 3 9 4 17 4 16 -1 0 -17 -10 -35 -21z"/>
<path d="M5435 3608 c2 -24 19 -35 30 -18 7 11 -11 40 -25 40 -3 0 -6 -10 -5
-22z"/>
<path d="M5364 3596 c-18 -8 -35 -19 -39 -26 -4 -7 5 -5 23 4 17 9 38 16 47
16 8 0 15 5 15 10 0 13 -8 12 -46 -4z"/>
<path d="M5440 3545 c7 -8 16 -12 21 -9 13 8 1 24 -18 24 -13 0 -13 -3 -3 -15z"/>
<path d="M1911 3476 c-21 -22 -21 -24 -4 -20 19 5 50 44 35 44 -5 0 -19 -11
-31 -24z"/>
<path d="M6376 3396 c-4 -38 -4 -71 -1 -74 3 -3 5 4 5 16 0 29 11 53 21 46 12
-7 10 3 -5 46 l-13 35 -7 -69z"/>
<path d="M1867 3403 c-3 -16 -2 -30 2 -33 5 -3 10 -12 14 -20 3 -8 5 6 5 33
-1 51 -13 63 -21 20z"/>
<path d="M1920 3373 c0 -9 -8 -25 -17 -36 -10 -11 -12 -17 -5 -13 7 4 12 1 12
-8 0 -9 -5 -16 -10 -16 -19 0 -150 -54 -150 -62 0 -17 53 -7 83 16 60 44 59
44 52 -20 -4 -33 -13 -73 -20 -91 -7 -17 -10 -34 -7 -38 4 -4 -1 -12 -11 -20
-14 -10 -16 -20 -9 -51 7 -37 9 -33 41 91 18 72 41 160 51 198 14 54 15 67 4
67 -8 0 -14 -8 -14 -17z"/>
<path d="M6350 3296 c0 -3 19 -18 43 -34 31 -21 48 -27 67 -22 24 7 23 8 -20
28 -54 24 -90 35 -90 28z"/>
<path d="M1688 3170 c-20 -33 -34 -60 -30 -60 4 0 22 14 40 31 26 23 33 36 30
59 -3 28 -4 27 -40 -30z"/>
<path d="M6500 3201 c0 -21 9 -36 35 -55 19 -15 35 -25 35 -22 0 8 -61 106
-66 106 -2 0 -4 -13 -4 -29z"/>
<path d="M6360 3101 c0 -5 5 -13 10 -16 6 -3 10 -2 10 4 0 5 -4 13 -10 16 -5
3 -10 2 -10 -4z"/>
<path d="M6380 2962 c0 -12 19 -26 26 -19 2 2 -2 10 -11 17 -9 8 -15 8 -15 2z"/>
<path d="M1757 2936 c-4 -10 -1 -13 9 -9 15 6 19 23 5 23 -5 0 -11 -7 -14 -14z"/>
</g>
</svg>
