<svg width="24" height="22" viewBox="0 0 24 22" fill="none" xmlns="http://www.w3.org/2000/svg">
<path d="M11.122 0.545574C11.5045 -0.133071 12.4818 -0.13307 12.8643 0.545574L15.8925 5.91815C16.0352 6.17133 16.281 6.3499 16.5659 6.40738L22.6113 7.62716C23.3749 7.78124 23.6769 8.71068 23.1497 9.28418L18.9758 13.8244C18.7791 14.0383 18.6853 14.3273 18.7186 14.616L19.4267 20.7424C19.5161 21.5163 18.7255 22.0907 18.0171 21.7665L12.4093 19.2C12.1451 19.079 11.8413 19.079 11.577 19.2L5.96922 21.7665C5.26086 22.0907 4.47023 21.5163 4.55967 20.7424L5.26772 14.616C5.30108 14.3273 5.2072 14.0383 5.01052 13.8244L0.83666 9.28418C0.309433 8.71068 0.611428 7.78124 1.37506 7.62716L7.42045 6.40738C7.70533 6.3499 7.95112 6.17133 8.09382 5.91815L11.122 0.545574Z" fill="#FEC13B"/>
</svg>
